<?xml version="1.0" standalone="no"?><svg role="presentation" xmlns="http://www.w3.org/2000/svg" preserveAspectRatio="none" viewBox="0 0 1440 320"><path fill="#EFF8FF" fill-opacity="1" d="M0,160L40,144C80,128,160,96,240,106.7C320,117,400,171,480,197.3C560,224,640,224,720,229.3C800,235,880,245,960,261.3C1040,277,1120,299,1200,288C1280,277,1360,235,1400,213.3L1440,192L1440,0L1400,0C1360,0,1280,0,1200,0C1120,0,1040,0,960,0C880,0,800,0,720,0C640,0,560,0,480,0C400,0,320,0,240,0C160,0,80,0,40,0L0,0Z"></path></svg>