<?xml version="1.0" standalone="no"?><svg role="presentation" xmlns="http://www.w3.org/2000/svg" preserveAspectRatio="none" viewBox="0 0 1440 320"><path fill="#EFF8FF" fill-opacity="1" d="M0,256L30,224C60,192,120,128,180,117.3C240,107,300,149,360,176C420,203,480,213,540,208C600,203,660,181,720,176C780,171,840,181,900,192C960,203,1020,213,1080,202.7C1140,192,1200,160,1260,149.3C1320,139,1380,149,1410,154.7L1440,160L1440,320L1410,320C1380,320,1320,320,1260,320C1200,320,1140,320,1080,320C1020,320,960,320,900,320C840,320,780,320,720,320C660,320,600,320,540,320C480,320,420,320,360,320C300,320,240,320,180,320C120,320,60,320,30,320L0,320Z"></path></svg>